<?xml version="1.0" encoding="UTF-8" standalone="no"?>
<!-- Created with Inkscape (http://www.inkscape.org/) -->

<svg
   version="1.1"
   id="svg2"
   width="577.18665"
   height="367.89334"
   viewBox="0 0 577.18665 367.89334"
   sodipodi:docname="toyota.eps"
   xmlns:inkscape="http://www.inkscape.org/namespaces/inkscape"
   xmlns:sodipodi="http://sodipodi.sourceforge.net/DTD/sodipodi-0.dtd"
   xmlns="http://www.w3.org/2000/svg"
   xmlns:svg="http://www.w3.org/2000/svg">
  <defs
     id="defs6" />
  <sodipodi:namedview
     id="namedview4"
     pagecolor="#ffffff"
     bordercolor="#000000"
     borderopacity="0.25"
     inkscape:showpageshadow="2"
     inkscape:pageopacity="0.0"
     inkscape:pagecheckerboard="0"
     inkscape:deskcolor="#d1d1d1" />
  <g
     id="g8"
     inkscape:groupmode="layer"
     inkscape:label="ink_ext_XXXXXX"
     transform="matrix(1.3333333,0,0,-1.3333333,0,367.89333)">
    <g
       id="g10"
       transform="scale(0.1)">
      <path
         d="M 2164.46,2757.77 C 969.855,2757.77 1.44141,2140.74 1.44141,1379.6 1.44141,618.465 969.855,1.44141 2164.46,1.44141 c 1194.6,0 2163.02,617.02359 2163.02,1378.15859 0,761.14 -968.42,1378.17 -2163.02,1378.17 z M 561.781,1925.03 c 59.528,-248.99 492.479,-455.74 1078.469,-534.36 -0.14,-11.69 -0.21,-23.43 -0.21,-35.2 0,-590.532 169.95,-1085.935 399.03,-1220.634 -950.52,45.465 -1700.304,569.82 -1700.304,1209.984 0,210.17 80.812,407.85 223.015,580.21 z M 1855.28,1368.21 c 100.06,-7.58 203.43,-11.55 309.18,-11.55 105.75,0 209.12,3.97 309.18,11.55 -14.19,-437.987 -147.2,-781.28 -309.18,-781.28 -161.99,0 -294.99,343.293 -309.18,781.28 z m 833.39,22.46 c 599.26,80.4 1038.48,294.8 1081.94,551.35 151.06,-176.31 237.3,-380.09 237.3,-597.2 0,-644.468 -759.91,-1171.57 -1719.52,-1210.836 229.81,133.45 400.48,629.7 400.48,1221.486 0,11.77 -0.07,23.51 -0.2,35.2 z m -336.79,1138.94 c 599.08,-30.49 1058.31,-204.88 1058.31,-415.45 0,-171.97 -306.29,-319.81 -744.91,-384.84 -47.77,367.97 -164.21,663.43 -313.4,800.29 z m 108.53,-823.7 c -94.86,-7.8 -193.98,-11.93 -295.95,-11.93 -101.98,0 -201.09,4.13 -295.95,11.93 39.81,347.28 157.26,598.93 295.95,598.93 138.68,0 256.13,-251.65 295.95,-598.93 z m -796.77,23.41 c -438.62,65.03 -744.913,212.87 -744.913,384.84 0,71.05 52.289,137.98 144.593,196.66 108.29,54.5 226.03,101.22 351.29,138.89 161.41,41.1 353.41,69.26 562.42,79.9 -149.18,-136.86 -265.62,-432.32 -313.39,-800.29"
         style="fill:#393939;fill-opacity:1;fill-rule:evenodd;stroke:none"
         id="path12" />
      <g
         id="g14"
         transform="scale(0.986634,1.01337)">
        <path
           d="M 2193.78,2721.39 C 982.994,2721.39 1.46093,2112.51 1.46093,1361.41 1.46093,610.308 982.994,1.42239 2193.78,1.42239 3404.56,1.42239 4386.1,610.308 4386.1,1361.41 c 0,751.1 -981.54,1359.98 -2192.32,1359.98 z"
           style="fill:none;stroke:#100f0d;stroke-width:7.49931;stroke-linecap:butt;stroke-linejoin:miter;stroke-miterlimit:4;stroke-dasharray:none;stroke-opacity:1"
           id="path16" />
      </g>
      <g
         id="g18"
         transform="scale(0.986634,1.01337)">
        <path
           d="m 569.392,1899.64 c 60.333,-245.71 499.148,-449.73 1093.078,-527.31 -0.14,-11.54 -0.21,-23.12 -0.21,-34.74 0,-582.742 172.25,-1071.61 404.43,-1204.532 -963.4,44.865 -1723.335,562.304 -1723.335,1194.022 0,207.4 81.907,402.48 226.037,572.56 z"
           style="fill:none;stroke:#100f0d;stroke-width:7.49931;stroke-linecap:butt;stroke-linejoin:miter;stroke-miterlimit:4;stroke-dasharray:none;stroke-opacity:1"
           id="path20" />
      </g>
      <g
         id="g22"
         transform="scale(0.986634,1.01337)">
        <path
           d="m 1880.41,1350.17 c 101.42,-7.49 206.19,-11.41 313.37,-11.41 107.19,0 211.95,3.92 313.37,11.41 -14.38,-432.216 -149.19,-770.982 -313.37,-770.982 -164.18,0 -298.99,338.766 -313.37,770.982 z"
           style="fill:none;stroke:#100f0d;stroke-width:7.49931;stroke-linecap:butt;stroke-linejoin:miter;stroke-miterlimit:4;stroke-dasharray:none;stroke-opacity:1"
           id="path24" />
      </g>
      <g
         id="g26"
         transform="scale(0.986634,1.01337)">
        <path
           d="m 2725.09,1372.33 c 607.38,79.34 1052.55,290.91 1096.6,544.08 153.1,-173.98 240.51,-375.09 240.51,-589.33 0,-635.966 -770.2,-1156.115 -1742.81,-1194.863 232.93,131.689 405.91,621.394 405.91,1205.373 0,11.62 -0.07,23.2 -0.21,34.74 z"
           style="fill:none;stroke:#100f0d;stroke-width:7.49931;stroke-linecap:butt;stroke-linejoin:miter;stroke-miterlimit:4;stroke-dasharray:none;stroke-opacity:1"
           id="path28" />
      </g>
      <g
         id="g30"
         transform="scale(0.986634,1.01337)">
        <path
           d="m 2383.74,2496.24 c 607.2,-30.08 1072.65,-202.18 1072.65,-409.97 0,-169.7 -310.44,-315.59 -755,-379.76 -48.42,363.12 -166.44,654.68 -317.65,789.73 z"
           style="fill:none;stroke:#100f0d;stroke-width:7.49931;stroke-linecap:butt;stroke-linejoin:miter;stroke-miterlimit:4;stroke-dasharray:none;stroke-opacity:1"
           id="path32" />
      </g>
      <g
         id="g34"
         transform="scale(0.986634,1.01337)">
        <path
           d="m 2493.74,1683.41 c -96.15,-7.69 -196.6,-11.77 -299.96,-11.77 -103.36,0 -203.82,4.08 -299.96,11.77 40.36,342.7 159.39,591.03 299.96,591.03 140.56,0 259.61,-248.33 299.96,-591.03 z"
           style="fill:none;stroke:#100f0d;stroke-width:7.49931;stroke-linecap:butt;stroke-linejoin:miter;stroke-miterlimit:4;stroke-dasharray:none;stroke-opacity:1"
           id="path36" />
      </g>
      <g
         id="g38"
         transform="scale(0.986634,1.01337)">
        <path
           d="m 1686.17,1706.51 c -444.56,64.17 -754.998,210.06 -754.998,379.76 0,70.12 52.998,136.17 146.558,194.07 109.75,53.78 229.08,99.89 356.05,137.06 163.59,40.56 358.19,68.34 570.03,78.84 -151.2,-135.05 -269.22,-426.61 -317.64,-789.73 z"
           style="fill:none;stroke:#100f0d;stroke-width:7.49931;stroke-linecap:butt;stroke-linejoin:miter;stroke-miterlimit:4;stroke-dasharray:none;stroke-opacity:1"
           id="path40" />
      </g>
    </g>
  </g>
</svg>
